<svg width="30" height="25" viewBox="0 0 30 25" fill="none" xmlns="http://www.w3.org/2000/svg">
<path d="M11.7857 9.375C11.7857 9.09873 11.8986 8.83378 12.0995 8.63843C12.3005 8.44308 12.573 8.33333 12.8571 8.33333H21.4286C21.7127 8.33333 21.9853 8.44308 22.1862 8.63843C22.3871 8.83378 22.5 9.09873 22.5 9.375C22.5 9.65127 22.3871 9.91622 22.1862 10.1116C21.9853 10.3069 21.7127 10.4167 21.4286 10.4167H12.8571C12.573 10.4167 12.3005 10.3069 12.0995 10.1116C11.8986 9.91622 11.7857 9.65127 11.7857 9.375ZM12.8571 14.5833H21.4286C21.7127 14.5833 21.9853 14.4736 22.1862 14.2782C22.3871 14.0829 22.5 13.8179 22.5 13.5417C22.5 13.2654 22.3871 13.0004 22.1862 12.8051C21.9853 12.6097 21.7127 12.5 21.4286 12.5H12.8571C12.573 12.5 12.3005 12.6097 12.0995 12.8051C11.8986 13.0004 11.7857 13.2654 11.7857 13.5417C11.7857 13.8179 11.8986 14.0829 12.0995 14.2782C12.3005 14.4736 12.573 14.5833 12.8571 14.5833ZM30 20.8333C30 21.9384 29.5485 22.9982 28.7447 23.7796C27.941 24.561 26.8509 25 25.7143 25H10.7143C9.57764 25 8.48755 24.561 7.68383 23.7796C6.8801 22.9982 6.42857 21.9384 6.42857 20.8333V4.16667C6.42857 3.61413 6.20281 3.08423 5.80094 2.69353C5.39908 2.30283 4.85404 2.08333 4.28571 2.08333C3.71739 2.08333 3.17235 2.30283 2.77049 2.69353C2.36862 3.08423 2.14286 3.61413 2.14286 4.16667C2.14286 4.91354 2.79 5.41979 2.79643 5.42396C3.01864 5.59237 3.16368 5.83911 3.20013 6.11074C3.23658 6.38237 3.16151 6.65703 2.99117 6.87524C2.82083 7.09344 2.56894 7.23763 2.29004 7.27658C2.01115 7.31553 1.7277 7.2461 1.50107 7.08333C1.34571 6.97187 0 5.9375 0 4.16667C0 3.0616 0.451529 2.00179 1.25526 1.22039C2.05898 0.438987 3.14907 0 4.28571 0H22.5C23.6366 0 24.7267 0.438987 25.5305 1.22039C26.3342 2.00179 26.7857 3.0616 26.7857 4.16667V17.7083H27.8571C28.089 17.7083 28.3145 17.7814 28.5 17.9167C28.6607 18.0292 30 19.0615 30 20.8333ZM11.82 18.4219C11.8931 18.2116 12.0329 18.0293 12.2192 17.9011C12.4056 17.7729 12.6289 17.7054 12.8571 17.7083H24.6429V4.16667C24.6429 3.61413 24.4171 3.08423 24.0152 2.69353C23.6134 2.30283 23.0683 2.08333 22.5 2.08333H7.99393C8.37321 2.71562 8.5725 3.43437 8.57143 4.16667V20.8333C8.57143 21.3859 8.79719 21.9158 9.19906 22.3065C9.60092 22.6972 10.146 22.9167 10.7143 22.9167C11.2826 22.9167 11.8277 22.6972 12.2295 22.3065C12.6314 21.9158 12.8571 21.3859 12.8571 20.8333C12.8571 20.0854 12.21 19.5802 12.2036 19.576C12.0209 19.449 11.8851 19.2682 11.8162 19.0604C11.7473 18.8526 11.749 18.6287 11.8211 18.4219H11.82ZM27.8571 20.8333C27.8436 20.4474 27.6903 20.0784 27.4243 19.7917H14.835C14.9421 20.1292 14.9979 20.4792 14.9979 20.8333C14.9986 21.565 14.8001 22.2838 14.4225 22.9167H25.7143C26.2826 22.9167 26.8277 22.6972 27.2295 22.3065C27.6314 21.9158 27.8571 21.3859 27.8571 20.8333Z" fill="#9B9B9B"/>
</svg>
