<svg width="36" height="34" viewBox="0 0 36 34" fill="none" xmlns="http://www.w3.org/2000/svg">
<path d="M18 0C27.9411 0 36 7.61116 36 17C36 26.3888 27.9411 34 18 34C8.05887 34 0 26.3888 0 17C0 7.61116 8.05887 0 18 0ZM18 1C8.55654 1 1 8.21653 1 17C1 25.7835 8.55654 33 18 33C27.4435 33 35 25.7835 35 17C35 8.21653 27.4435 1 18 1ZM14.0078 8C14.6885 8 15.2381 8.00013 15.6826 8.03613C16.1397 8.07381 16.5414 8.15358 16.9131 8.34277C17.5039 8.64379 17.9841 9.12402 18.2852 9.71484C18.4743 10.0865 18.5541 10.4882 18.5918 10.9453C18.601 11.0607 18.6091 11.1828 18.6133 11.3115C19.1078 10.8178 19.4529 10.4768 19.832 10.2676C20.2964 10.0116 20.8184 9.87793 21.3486 9.87793C21.879 9.87797 22.4009 10.0115 22.8652 10.2676C23.2561 10.4827 23.6101 10.8388 24.1299 11.3594L24.2705 11.5C24.7483 11.9769 25.0767 12.3047 25.2852 12.667C25.7883 13.5436 25.8387 14.61 25.4209 15.5293C25.2476 15.9101 24.9535 16.2675 24.5225 16.7881L24.1553 17.2314C24.3445 17.2474 24.5148 17.2736 24.6738 17.3154C25.2059 17.4582 25.6906 17.7393 26.0801 18.1289C26.4697 18.5186 26.75 19.0038 26.8926 19.5361C26.9997 19.9371 27 20.4041 27 21.0889V21.626C27 22.1928 26.9997 22.6498 26.9746 23.0215C26.9487 23.4039 26.8939 23.742 26.7617 24.0625C26.4428 24.8316 25.8308 25.4432 25.0615 25.7617C24.7419 25.8938 24.4038 25.9487 24.0215 25.9746C23.6498 25.9997 23.1919 26 22.626 26H13.6201C12.9395 26 12.3899 25.9999 11.9453 25.9639C11.4882 25.9262 11.0866 25.8464 10.7148 25.6572C10.124 25.3562 9.64379 24.876 9.34277 24.2852C9.15358 23.9134 9.07381 23.5118 9.03613 23.0547C9.00013 22.6101 9 22.0605 9 21.3799V12.6201C9 11.9395 9.00013 11.3899 9.03613 10.9453C9.07381 10.4882 9.15358 10.0866 9.34277 9.71484C9.64379 9.12402 10.124 8.64379 10.7148 8.34277C11.0866 8.15358 11.4882 8.07381 11.9453 8.03613C12.3899 8.00013 12.9395 8 13.6201 8H14.0078ZM13.6465 9.25586C12.9326 9.25586 12.4354 9.2563 12.0479 9.28809C11.6688 9.31904 11.45 9.37647 11.2852 9.46094C10.9304 9.64159 10.6416 9.9304 10.4609 10.2852C10.3773 10.45 10.3191 10.6683 10.2881 11.0479C10.2563 11.4346 10.2559 11.9324 10.2559 12.6465V21.3535C10.2559 22.0674 10.2563 22.5646 10.2881 22.9521C10.319 23.3312 10.3773 23.5501 10.4609 23.7158C10.6418 24.07 10.9302 24.3582 11.2852 24.5391C11.45 24.6227 11.6683 24.6809 12.0479 24.7119C12.4346 24.7437 12.9324 24.7441 13.6465 24.7441H17.3721V12.6465C17.3721 11.9326 17.3716 11.4354 17.3398 11.0479C17.3089 10.6689 17.2506 10.45 17.167 10.2852C16.9863 9.9304 16.6975 9.64159 16.3428 9.46094C16.1779 9.37734 15.9596 9.31905 15.5801 9.28809C15.1933 9.25627 14.6956 9.25586 13.9814 9.25586H13.6465ZM18.6279 23.9238V24.7441H22.6045C23.1987 24.7441 23.6124 24.7444 23.9355 24.7227C24.2536 24.7009 24.4396 24.6592 24.5811 24.6006C24.8097 24.5059 25.0174 24.3673 25.1924 24.1924C25.3673 24.0174 25.5059 23.8097 25.6006 23.5811C25.6592 23.4396 25.7009 23.2546 25.7227 22.9365C25.7444 22.6125 25.7441 22.198 25.7441 21.6045V21.1865C25.7441 20.3677 25.7383 20.0807 25.6797 19.8613C25.594 19.5423 25.426 19.2511 25.1924 19.0176C24.9586 18.7839 24.667 18.6158 24.3477 18.5303C24.1384 18.4734 23.8683 18.4657 23.1367 18.4648L18.6279 23.9238ZM13.8135 20.3486C13.9234 20.3486 14.0332 20.37 14.1348 20.4121C14.2363 20.4542 14.3285 20.5161 14.4062 20.5938C14.484 20.6714 14.5458 20.7637 14.5879 20.8652C14.63 20.9668 14.6514 21.0766 14.6514 21.1865C14.6513 21.2963 14.6299 21.4054 14.5879 21.5068C14.5458 21.6083 14.484 21.7006 14.4062 21.7783C14.3285 21.856 14.2363 21.9179 14.1348 21.96C14.0332 22.002 13.9234 22.0235 13.8135 22.0234C13.5916 22.0233 13.3785 21.9352 13.2217 21.7783C13.0648 21.6214 12.9767 21.4084 12.9766 21.1865C12.9766 20.9645 13.0647 20.7508 13.2217 20.5938C13.3785 20.4369 13.5916 20.3488 13.8135 20.3486ZM21.3486 11.1328C21.0302 11.1328 20.7163 11.2134 20.4375 11.3672C20.2241 11.4852 20.0023 11.699 19.3809 12.3213L18.6279 13.0742V21.9512L23.4941 16.0615C24.0073 15.4395 24.1827 15.2191 24.2773 15.0098C24.4008 14.7378 24.4585 14.44 24.4443 14.1416C24.4302 13.8434 24.3448 13.5529 24.1963 13.2939C24.0824 13.0947 23.8863 12.892 23.3164 12.3213C22.6944 11.6992 22.4723 11.4852 22.2588 11.3672C21.9801 11.2135 21.6669 11.1328 21.3486 11.1328Z" fill="black"/>
</svg>
