<svg width="28" height="28" viewBox="0 0 28 28" fill="none" xmlns="http://www.w3.org/2000/svg">
<path d="M14 1.95349C11.9775 1.95305 9.98753 2.46181 8.21344 3.43286C6.43935 4.40391 4.9383 5.806 3.84868 7.50984C2.75906 9.21368 2.11596 11.1644 1.97866 13.1822C1.84137 15.2 2.2143 17.2199 3.06308 19.0556L3.17117 19.2887C3.72857 20.4791 4.38233 21.8752 3.87443 23.6437C3.76359 23.9939 3.62646 24.3352 3.4642 24.6647L3.38475 24.8393C3.22717 25.187 3.14903 25.4136 3.13341 25.6024C3.12937 25.6517 3.13664 25.7013 3.15466 25.7474C3.17268 25.7935 3.20097 25.8349 3.23738 25.8685C3.27379 25.902 3.31737 25.9268 3.36479 25.9409C3.41222 25.9551 3.46225 25.9582 3.51108 25.9501C4.00987 25.8668 4.36671 25.6845 4.84336 25.4422C5.01006 25.355 5.19238 25.2625 5.40075 25.1635C6.17694 24.795 7.11331 24.4863 8.3961 24.7885C8.66568 24.8523 9.25303 25.062 10.2207 25.4084H10.2233L10.3926 25.4696C11.4553 25.8499 12.6143 26.0465 14.0013 26.0465C17.1962 26.0465 20.2603 24.7773 22.5195 22.5182C24.7786 20.259 26.0478 17.1949 26.0478 14C26.0478 10.8051 24.7786 7.74099 22.5195 5.48183C20.2603 3.22267 17.1962 1.95349 14.0013 1.95349H14ZM1.11179e-05 14C1.11179e-05 6.26809 6.2681 0 14 0C21.7319 0 28 6.26809 28 14C28 21.7319 21.7319 28 14 28C12.419 28 11.0333 27.7734 9.73359 27.3098L10.0618 26.389L9.73359 27.3085C8.56931 26.8917 8.09266 26.7237 7.9494 26.6899C7.25657 26.5271 6.79294 26.6638 6.23945 26.9282C6.13526 26.9777 6.01805 27.0376 5.89043 27.104C5.3695 27.3736 4.65973 27.7395 3.83275 27.8763C3.49075 27.9333 3.14025 27.9116 2.80793 27.8127C2.4756 27.7138 2.17022 27.5404 1.91503 27.3057C1.65984 27.0709 1.46157 26.7811 1.33531 26.4582C1.20905 26.1353 1.15813 25.7878 1.18643 25.4422C1.23201 24.8913 1.44038 24.3978 1.60317 24.0357L1.72299 23.7753C1.84801 23.5044 1.93787 23.309 1.99648 23.1046C2.29861 22.0536 1.94438 21.2865 1.32057 19.9425L1.29062 19.8774C0.437899 18.0355 -0.00255144 16.0297 1.11179e-05 14ZM7.81396 11.3953C7.81396 11.1363 7.91687 10.8879 8.10004 10.7047C8.28322 10.5215 8.53166 10.4186 8.7907 10.4186H19.2093C19.4684 10.4186 19.7168 10.5215 19.9 10.7047C20.0831 10.8879 20.1861 11.1363 20.1861 11.3953C20.1861 11.6544 20.0831 11.9028 19.9 12.086C19.7168 12.2692 19.4684 12.3721 19.2093 12.3721H8.7907C8.53166 12.3721 8.28322 12.2692 8.10004 12.086C7.91687 11.9028 7.81396 11.6544 7.81396 11.3953ZM8.7907 15.6279C8.53166 15.6279 8.28322 15.7308 8.10004 15.914C7.91687 16.0972 7.81396 16.3456 7.81396 16.6047C7.81396 16.8637 7.91687 17.1121 8.10004 17.2953C8.28322 17.4785 8.53166 17.5814 8.7907 17.5814H14C14.2591 17.5814 14.5075 17.4785 14.6907 17.2953C14.8738 17.1121 14.9767 16.8637 14.9767 16.6047C14.9767 16.3456 14.8738 16.0972 14.6907 15.914C14.5075 15.7308 14.2591 15.6279 14 15.6279H8.7907Z" fill="black"/>
</svg>
