<svg width="75" height="75" viewBox="0 0 75 75" fill="none" xmlns="http://www.w3.org/2000/svg">
<path d="M37.5 0C58.2107 0 75 16.7893 75 37.5C75 58.2107 58.2107 75 37.5 75C16.7893 75 0 58.2107 0 37.5C0 16.7893 16.7893 0 37.5 0ZM37.5 1C17.3416 1 1 17.3416 1 37.5C1 57.6584 17.3416 74 37.5 74C57.6584 74 74 57.6584 74 37.5C74 17.3416 57.6584 1 37.5 1ZM49.8213 38.7256C50.9482 38.7256 52.0057 38.9391 52.9932 39.3662C53.9805 39.7827 54.8503 40.3649 55.6016 41.1123C56.3527 41.8597 56.9379 42.7247 57.3564 43.707C57.7857 44.6893 57.9999 45.7412 58 46.8623C58 47.9727 57.7857 49.0196 57.3564 50.002C56.9271 50.9844 56.3314 51.8501 55.5693 52.5977C54.818 53.3451 53.9483 53.9322 52.9609 54.3594C51.9735 54.7865 50.9268 55 49.8213 55C48.705 55 47.6525 54.7865 46.665 54.3594C45.6778 53.9429 44.8088 53.3606 44.0576 52.6133C43.3063 51.8658 42.7155 51.0009 42.2861 50.0186C41.8568 49.0361 41.6426 47.9836 41.6426 46.8623C41.6426 45.7412 41.8568 44.6943 42.2861 43.7227C42.7155 42.7403 43.3064 41.8754 44.0576 41.1279C44.8088 40.37 45.6779 39.7826 46.665 39.3662C47.6525 38.9391 48.705 38.7256 49.8213 38.7256ZM49.8213 41.7686C49.5208 41.7686 49.2791 41.8596 49.0967 42.041C48.9249 42.2226 48.8389 42.4578 48.8389 42.7461V45.8857H45.6836C45.3938 45.8857 45.1571 45.9767 44.9746 46.1582C44.7924 46.329 44.7013 46.5637 44.7012 46.8623C44.7012 47.1612 44.7923 47.3965 44.9746 47.5674C45.1571 47.7489 45.3938 47.8398 45.6836 47.8398H48.8389V50.9795C48.8389 51.2678 48.925 51.503 49.0967 51.6846C49.2791 51.866 49.5209 51.9561 49.8213 51.9561C50.1216 51.956 50.3576 51.8659 50.5293 51.6846C50.7117 51.503 50.8027 51.2678 50.8027 50.9795V47.8398H53.959C54.2487 47.8398 54.4846 47.7488 54.667 47.5674C54.8495 47.3965 54.9414 47.1613 54.9414 46.8623C54.9413 46.5635 54.8494 46.329 54.667 46.1582C54.4846 45.9767 54.2487 45.8858 53.959 45.8857H50.8027V42.7461C50.8027 42.4578 50.7118 42.2226 50.5293 42.041C50.3576 41.8596 50.1216 41.7686 49.8213 41.7686ZM36.0713 36.835C37.5309 36.835 38.8888 36.9951 40.1445 37.3154C41.4111 37.6251 42.5604 38.053 43.5908 38.5977C43.2474 38.8646 42.9246 39.1522 42.624 39.4619C42.3235 39.7609 42.0398 40.0871 41.7715 40.4395C40.9879 40.0764 40.1125 39.7878 39.1465 39.5742C38.1913 39.3607 37.166 39.2539 36.0713 39.2539C34.2253 39.2539 32.5886 39.5208 31.1611 40.0547C29.7337 40.5779 28.5314 41.2402 27.5547 42.041C26.5887 42.8419 25.8531 43.6701 25.3486 44.5244C24.8443 45.3786 24.5918 46.1368 24.5918 46.7988C24.5918 46.9696 24.6349 47.0873 24.7207 47.1514C24.8173 47.2154 24.973 47.247 25.1875 47.2471H39.4365C39.4473 47.6635 39.4844 48.0747 39.5488 48.4805C39.6132 48.8863 39.7052 49.2816 39.8232 49.666H25.9609C23.3205 49.666 22 48.8112 22 47.1025C22.0001 46.0561 22.3219 44.9401 22.9658 43.7549C23.6098 42.5696 24.5382 41.4537 25.751 40.4072C26.9746 39.35 28.4507 38.4902 30.1787 37.8281C31.9175 37.1661 33.8818 36.835 36.0713 36.835ZM36.0557 20C37.3328 20 38.4971 20.3312 39.5488 20.9932C40.6007 21.6553 41.4439 22.5417 42.0771 23.6523C42.7103 24.7629 43.0215 25.9964 43.0107 27.3525C43.0107 28.7194 42.6938 29.9746 42.0605 31.1172C41.438 32.2489 40.6006 33.1515 39.5488 33.8242C38.4971 34.4968 37.3327 34.833 36.0557 34.833C34.7784 34.833 33.6134 34.497 32.5615 33.8242C31.5096 33.1408 30.6675 32.2325 30.0342 31.1006C29.4116 29.9579 29.1006 28.6979 29.1006 27.3203C29.1006 25.9534 29.4116 24.72 30.0342 23.6201C30.6674 22.5097 31.5098 21.6289 32.5615 20.9775C33.6134 20.3261 34.7784 20 36.0557 20ZM36.0557 22.4189C35.2615 22.4189 34.5316 22.6325 33.8662 23.0596C33.2115 23.4867 32.6852 24.0739 32.2881 24.8213C31.891 25.5581 31.6924 26.3913 31.6924 27.3203C31.6924 28.2601 31.8909 29.1199 32.2881 29.8994C32.6852 30.6682 33.2165 31.2821 33.8818 31.7412C34.5473 32.1897 35.2721 32.4141 36.0557 32.4141C36.839 32.414 37.5632 32.1896 38.2285 31.7412C38.894 31.2927 39.4261 30.6839 39.8232 29.915C40.2202 29.1463 40.4189 28.2921 40.4189 27.3525C40.4297 26.4236 40.2359 25.5854 39.8389 24.8379C39.4417 24.0904 38.9106 23.5024 38.2451 23.0752C37.5905 22.6375 36.8605 22.419 36.0557 22.4189Z" fill="#A3A3A3"/>
</svg>
