<svg width="32" height="27" viewBox="0 0 32 27" fill="none" xmlns="http://www.w3.org/2000/svg">
<path d="M23.1426 0.5C25.3606 0.502607 27.4856 1.37123 29.0518 2.91309C30.5199 4.35863 31.3848 6.28535 31.4893 8.31445L31.5 8.72168C31.4995 13.4071 27.9528 17.7308 24.1807 20.9834C20.4368 24.2115 16.611 26.2658 16.3105 26.4229L16.3076 26.4238C16.2135 26.4737 16.1077 26.5 16 26.5C15.8923 26.5 15.7865 26.4737 15.6924 26.4238L15.6895 26.4229L15.4189 26.2764C14.4345 25.7341 11.0955 23.8082 7.81934 20.9834C4.04716 17.7308 0.500465 13.4071 0.5 8.72168C0.502563 6.54454 1.38226 4.45496 2.94824 2.91309C4.41665 1.46745 6.37635 0.61384 8.44336 0.510742L8.85742 0.5C11.6639 0.500078 14.0944 1.68609 15.6025 3.66309L16 4.18457L16.3975 3.66309C17.8114 1.80961 20.036 0.65124 22.6211 0.513672L23.1426 0.5ZM30.2139 8.71973C30.2115 6.86959 29.464 5.09785 28.1377 3.79199C26.8116 2.48632 25.0156 1.75324 23.1436 1.75098H23.1426C20.1882 1.75107 17.6564 3.30207 16.5957 5.85547C16.5483 5.96909 16.4671 6.06775 16.3613 6.1377C16.2552 6.20771 16.1292 6.24609 16 6.24609C15.8708 6.24609 15.7448 6.20771 15.6387 6.1377C15.5329 6.06775 15.4517 5.96909 15.4043 5.85547C14.3438 3.30707 11.8124 1.75107 8.85742 1.75098H8.85645C6.98436 1.75324 5.1884 2.48632 3.8623 3.79199C2.53604 5.09785 1.78853 6.86959 1.78613 8.71973V8.7207C1.78613 12.7249 4.71168 16.4465 7.82715 19.2939C10.9687 22.1651 14.4332 24.2646 15.751 25.0205L16 25.1631L16.249 25.0205C17.5648 24.2642 21.0298 22.1617 24.1719 19.2891C27.2875 16.4406 30.2139 12.7194 30.2139 8.7207V8.71973Z" fill="#343030" stroke="black"/>
</svg>
