<svg width="25" height="25" viewBox="0 0 25 25" fill="none" xmlns="http://www.w3.org/2000/svg">
<path d="M12.5 1.74419C10.6942 1.74379 8.91744 2.19804 7.33343 3.06505C5.74942 3.93206 4.40919 5.18393 3.43632 6.70521C2.46345 8.2265 1.88925 9.96824 1.76667 11.7698C1.64408 13.5714 1.97706 15.3749 2.73489 17.014L2.8314 17.2221C3.32908 18.2849 3.9128 19.5314 3.45931 21.1105C3.36035 21.4231 3.23791 21.7279 3.09303 22.0221L3.0221 22.1779C2.8814 22.4884 2.81164 22.6907 2.79768 22.8593C2.79408 22.9033 2.80058 22.9476 2.81666 22.9888C2.83275 23.0299 2.85801 23.0669 2.89052 23.0968C2.92303 23.1268 2.96193 23.1489 3.00428 23.1615C3.04663 23.1742 3.09129 23.177 3.13489 23.1698C3.58024 23.0953 3.89885 22.9326 4.32443 22.7163C4.47326 22.6384 4.63605 22.5558 4.8221 22.4674C5.51512 22.1384 6.35117 21.8628 7.49652 22.1326C7.73722 22.1895 8.26163 22.3767 9.12559 22.686H9.12791L9.27908 22.7407C10.2279 23.0802 11.2628 23.2558 12.5012 23.2558C15.3538 23.2558 18.0896 22.1226 20.1067 20.1055C22.1238 18.0884 23.257 15.3526 23.257 12.5C23.257 9.64738 22.1238 6.9116 20.1067 4.89449C18.0896 2.87738 15.3538 1.74419 12.5012 1.74419H12.5ZM9.92667e-06 12.5C9.92667e-06 5.59651 5.59652 0 12.5 0C19.4035 0 25 5.59651 25 12.5C25 19.4035 19.4035 25 12.5 25C11.0884 25 9.85117 24.7977 8.6907 24.3837L8.98373 23.5616L8.6907 24.3826C7.65117 24.0105 7.22559 23.8605 7.09768 23.8302C6.47908 23.6849 6.06512 23.807 5.57094 24.043C5.47791 24.0872 5.37326 24.1407 5.25931 24.2C4.79419 24.4407 4.16047 24.7674 3.4221 24.8895C3.11674 24.9405 2.8038 24.921 2.50708 24.8327C2.21036 24.7445 1.9377 24.5896 1.70985 24.3801C1.482 24.1705 1.30497 23.9117 1.19224 23.6234C1.07951 23.3351 1.03404 23.0248 1.05931 22.7163C1.10001 22.2244 1.28606 21.7837 1.4314 21.4605L1.53838 21.2279C1.65001 20.986 1.73024 20.8116 1.78257 20.6291C2.05233 19.6907 1.73606 19.0058 1.17908 17.8058L1.15233 17.7477C0.390981 16.1031 -0.00227807 14.3122 9.92667e-06 12.5ZM6.97675 10.1744C6.97675 9.94312 7.06863 9.7213 7.23218 9.55775C7.39573 9.39421 7.61755 9.30232 7.84884 9.30232H17.1512C17.3825 9.30232 17.6043 9.39421 17.7678 9.55775C17.9314 9.7213 18.0233 9.94312 18.0233 10.1744C18.0233 10.4057 17.9314 10.6275 17.7678 10.7911C17.6043 10.9546 17.3825 11.0465 17.1512 11.0465H7.84884C7.61755 11.0465 7.39573 10.9546 7.23218 10.7911C7.06863 10.6275 6.97675 10.4057 6.97675 10.1744ZM7.84884 13.9535C7.61755 13.9535 7.39573 14.0454 7.23218 14.2089C7.06863 14.3725 6.97675 14.5943 6.97675 14.8256C6.97675 15.0569 7.06863 15.2787 7.23218 15.4422C7.39573 15.6058 7.61755 15.6977 7.84884 15.6977H12.5C12.7313 15.6977 12.9531 15.6058 13.1167 15.4422C13.2802 15.2787 13.3721 15.0569 13.3721 14.8256C13.3721 14.5943 13.2802 14.3725 13.1167 14.2089C12.9531 14.0454 12.7313 13.9535 12.5 13.9535H7.84884Z" fill="black"/>
</svg>
