<svg width="108" height="108" viewBox="0 0 108 108" fill="none" xmlns="http://www.w3.org/2000/svg">
<circle cx="54" cy="54" r="54" fill="black"/>
<path d="M41.3821 64.0475C42.6888 64.0475 43.6408 64.3042 44.2381 64.8175C44.8354 65.3308 45.1341 66.0542 45.1341 66.9875C45.1341 67.3982 45.0641 67.7948 44.9241 68.1775C44.7934 68.5508 44.5741 68.8868 44.2661 69.1855C43.9581 69.4842 43.5474 69.7222 43.0341 69.8995C42.5208 70.0675 41.8908 70.1515 41.1441 70.1515H39.9961V74.0435H38.7361V64.0475H41.3821ZM41.2701 65.1255H39.9961V69.0735H41.0041C41.6388 69.0735 42.1661 69.0082 42.5861 68.8775C43.0061 68.7375 43.3188 68.5182 43.5241 68.2195C43.7294 67.9208 43.8321 67.5288 43.8321 67.0435C43.8321 66.3995 43.6268 65.9188 43.2161 65.6015C42.8054 65.2842 42.1568 65.1255 41.2701 65.1255ZM53.5687 70.2775C53.5687 70.9028 53.4847 71.4582 53.3167 71.9435C53.158 72.4195 52.9247 72.8255 52.6167 73.1615C52.318 73.4975 51.9493 73.7542 51.5107 73.9315C51.0813 74.0995 50.6007 74.1835 50.0687 74.1835C49.574 74.1835 49.1167 74.0995 48.6967 73.9315C48.2767 73.7542 47.9127 73.4975 47.6047 73.1615C47.2967 72.8255 47.054 72.4195 46.8767 71.9435C46.7087 71.4582 46.6247 70.9028 46.6247 70.2775C46.6247 69.4468 46.7647 68.7468 47.0447 68.1775C47.3247 67.5988 47.726 67.1602 48.2487 66.8615C48.7713 66.5535 49.392 66.3995 50.1107 66.3995C50.792 66.3995 51.3893 66.5535 51.9027 66.8615C52.4253 67.1602 52.8313 67.5988 53.1207 68.1775C53.4193 68.7468 53.5687 69.4468 53.5687 70.2775ZM47.8987 70.2775C47.8987 70.8655 47.9733 71.3788 48.1227 71.8175C48.2813 72.2468 48.524 72.5782 48.8507 72.8115C49.1773 73.0448 49.5927 73.1615 50.0967 73.1615C50.6007 73.1615 51.016 73.0448 51.3427 72.8115C51.6693 72.5782 51.9073 72.2468 52.0567 71.8175C52.2153 71.3788 52.2947 70.8655 52.2947 70.2775C52.2947 69.6802 52.2153 69.1715 52.0567 68.7515C51.898 68.3315 51.6553 68.0095 51.3287 67.7855C51.0113 67.5522 50.596 67.4355 50.0827 67.4355C49.3173 67.4355 48.762 67.6875 48.4167 68.1915C48.0713 68.6955 47.8987 69.3908 47.8987 70.2775ZM58.4192 66.3995C59.0632 66.3995 59.6139 66.5395 60.0712 66.8195C60.5379 67.0995 60.8926 67.4962 61.1352 68.0095C61.3872 68.5135 61.5132 69.1062 61.5132 69.7875V70.5295H56.3752C56.3939 71.3788 56.6086 72.0275 57.0192 72.4755C57.4392 72.9142 58.0226 73.1335 58.7692 73.1335C59.2452 73.1335 59.6652 73.0915 60.0292 73.0075C60.4026 72.9142 60.7852 72.7835 61.1772 72.6155V73.6935C60.7946 73.8615 60.4166 73.9828 60.0432 74.0575C59.6699 74.1415 59.2266 74.1835 58.7132 74.1835C58.0039 74.1835 57.3739 74.0388 56.8232 73.7495C56.2819 73.4602 55.8572 73.0308 55.5492 72.4615C55.2506 71.8828 55.1012 71.1782 55.1012 70.3475C55.1012 69.5262 55.2366 68.8215 55.5072 68.2335C55.7872 67.6455 56.1746 67.1928 56.6692 66.8755C57.1732 66.5582 57.7566 66.3995 58.4192 66.3995ZM58.4052 67.4075C57.8172 67.4075 57.3506 67.5988 57.0052 67.9815C56.6692 68.3548 56.4686 68.8775 56.4032 69.5495H60.2252C60.2252 69.1202 60.1599 68.7468 60.0292 68.4295C59.8986 68.1122 59.6979 67.8648 59.4272 67.6875C59.1659 67.5008 58.8252 67.4075 58.4052 67.4075ZM71.6556 66.3995C72.5049 66.3995 73.1396 66.6188 73.5596 67.0575C73.9796 67.4868 74.1896 68.1868 74.1896 69.1575V74.0435H72.9716V69.2135C72.9716 68.6255 72.8456 68.1822 72.5936 67.8835C72.3509 67.5848 71.9682 67.4355 71.4456 67.4355C70.7176 67.4355 70.1949 67.6455 69.8776 68.0655C69.5696 68.4855 69.4156 69.0968 69.4156 69.8995V74.0435H68.1976V69.2135C68.1976 68.8215 68.1416 68.4948 68.0296 68.2335C67.9176 67.9628 67.7496 67.7622 67.5256 67.6315C67.3016 67.5008 67.0122 67.4355 66.6576 67.4355C66.1536 67.4355 65.7569 67.5428 65.4676 67.7575C65.1782 67.9628 64.9682 68.2662 64.8376 68.6675C64.7162 69.0688 64.6556 69.5635 64.6556 70.1515V74.0435H63.4236V66.5395H64.4176L64.5996 67.5615H64.6696C64.8282 67.3002 65.0196 67.0855 65.2436 66.9175C65.4769 66.7402 65.7336 66.6095 66.0136 66.5255C66.2936 66.4415 66.5829 66.3995 66.8816 66.3995C67.4602 66.3995 67.9409 66.5022 68.3236 66.7075C68.7156 66.9128 69.0002 67.2302 69.1776 67.6595H69.2476C69.4996 67.2302 69.8402 66.9128 70.2696 66.7075C70.7082 66.5022 71.1702 66.3995 71.6556 66.3995ZM42.8613 80.0475C43.692 80.0475 44.3733 80.1548 44.9053 80.3695C45.4466 80.5748 45.848 80.8875 46.1093 81.3075C46.3706 81.7275 46.5013 82.2548 46.5013 82.8895C46.5013 83.4215 46.4033 83.8648 46.2073 84.2195C46.0113 84.5742 45.7593 84.8588 45.4513 85.0735C45.1526 85.2788 44.8353 85.4422 44.4993 85.5635L47.2433 90.0435H45.7733L43.3513 85.9135H41.3633V90.0435H40.1033V80.0475H42.8613ZM42.7913 81.1395H41.3633V84.8495H42.8613C43.4026 84.8495 43.846 84.7795 44.1913 84.6395C44.5366 84.4902 44.7886 84.2755 44.9473 83.9955C45.1153 83.7155 45.1993 83.3655 45.1993 82.9455C45.1993 82.5068 45.1106 82.1568 44.9333 81.8955C44.7653 81.6342 44.504 81.4428 44.1493 81.3215C43.7946 81.2002 43.342 81.1395 42.7913 81.1395ZM51.5423 82.3995C52.1863 82.3995 52.7369 82.5395 53.1943 82.8195C53.6609 83.0995 54.0156 83.4962 54.2583 84.0095C54.5103 84.5135 54.6363 85.1062 54.6363 85.7875V86.5295H49.4983C49.5169 87.3788 49.7316 88.0275 50.1423 88.4755C50.5623 88.9142 51.1456 89.1335 51.8923 89.1335C52.3683 89.1335 52.7883 89.0915 53.1523 89.0075C53.5256 88.9142 53.9083 88.7835 54.3003 88.6155V89.6935C53.9176 89.8615 53.5396 89.9828 53.1663 90.0575C52.7929 90.1415 52.3496 90.1835 51.8363 90.1835C51.1269 90.1835 50.4969 90.0388 49.9463 89.7495C49.4049 89.4602 48.9803 89.0308 48.6723 88.4615C48.3736 87.8828 48.2243 87.1782 48.2243 86.3475C48.2243 85.5262 48.3596 84.8215 48.6303 84.2335C48.9103 83.6455 49.2976 83.1928 49.7923 82.8755C50.2963 82.5582 50.8796 82.3995 51.5423 82.3995ZM51.5283 83.4075C50.9403 83.4075 50.4736 83.5988 50.1283 83.9815C49.7923 84.3548 49.5916 84.8775 49.5263 85.5495H53.3483C53.3483 85.1202 53.2829 84.7468 53.1523 84.4295C53.0216 84.1122 52.8209 83.8648 52.5503 83.6875C52.2889 83.5008 51.9483 83.4075 51.5283 83.4075ZM57.7786 90.0435H56.5466V79.4035H57.7786V90.0435ZM62.998 82.4135C63.9127 82.4135 64.5893 82.6142 65.028 83.0155C65.4667 83.4168 65.686 84.0562 65.686 84.9335V90.0435H64.79L64.552 88.9795H64.496C64.2813 89.2502 64.0573 89.4788 63.824 89.6655C63.6 89.8428 63.3387 89.9735 63.04 90.0575C62.7507 90.1415 62.396 90.1835 61.976 90.1835C61.528 90.1835 61.122 90.1042 60.758 89.9455C60.4033 89.7868 60.1233 89.5442 59.918 89.2175C59.7127 88.8815 59.61 88.4615 59.61 87.9575C59.61 87.2108 59.904 86.6368 60.492 86.2355C61.08 85.8248 61.9853 85.6008 63.208 85.5635L64.482 85.5215V85.0735C64.482 84.4482 64.3467 84.0142 64.076 83.7715C63.8053 83.5288 63.4227 83.4075 62.928 83.4075C62.536 83.4075 62.1627 83.4682 61.808 83.5895C61.4533 83.7015 61.122 83.8322 60.814 83.9815L60.436 83.0575C60.7627 82.8802 61.15 82.7308 61.598 82.6095C62.046 82.4788 62.5127 82.4135 62.998 82.4135ZM63.362 86.4175C62.4287 86.4548 61.78 86.6042 61.416 86.8655C61.0613 87.1268 60.884 87.4955 60.884 87.9715C60.884 88.3915 61.01 88.6995 61.262 88.8955C61.5233 89.0915 61.8547 89.1895 62.256 89.1895C62.8907 89.1895 63.418 89.0168 63.838 88.6715C64.258 88.3168 64.468 87.7755 64.468 87.0475V86.3755L63.362 86.4175ZM66.8276 82.5395H68.1436L69.7676 86.8095C69.861 87.0615 69.945 87.3042 70.0196 87.5375C70.1036 87.7708 70.1783 87.9995 70.2436 88.2235C70.309 88.4382 70.3603 88.6482 70.3976 88.8535H70.4536C70.5096 88.6202 70.5983 88.3168 70.7196 87.9435C70.841 87.5608 70.967 87.1782 71.0976 86.7955L72.6236 82.5395H73.9536L70.7196 91.0795C70.5423 91.5462 70.3323 91.9522 70.0896 92.2975C69.8563 92.6522 69.567 92.9228 69.2216 93.1095C68.8856 93.3055 68.475 93.4035 67.9896 93.4035C67.7656 93.4035 67.5696 93.3895 67.4016 93.3615C67.2336 93.3428 67.089 93.3195 66.9676 93.2915V92.3115C67.0703 92.3302 67.1916 92.3488 67.3316 92.3675C67.481 92.3862 67.635 92.3955 67.7936 92.3955C68.083 92.3955 68.3303 92.3395 68.5356 92.2275C68.7503 92.1248 68.9323 91.9708 69.0816 91.7655C69.231 91.5695 69.357 91.3362 69.4596 91.0655L69.8516 90.0715L66.8276 82.5395Z" fill="white"/>
<path d="M59.4772 35.1758C59.0815 35.1758 58.7578 35.0501 58.506 34.7987C58.2542 34.5353 58.1283 34.2181 58.1283 33.8469C58.1283 33.4519 58.2542 33.1286 58.506 32.8772C58.7578 32.6258 59.0815 32.5001 59.4772 32.5001H72.4981C72.8818 32.5001 73.1995 32.6258 73.4513 32.8772C73.7151 33.1286 73.847 33.4519 73.847 33.8469C73.847 34.2181 73.7151 34.5353 73.4513 34.7987C73.1995 35.0501 72.8818 35.1758 72.4981 35.1758H59.4772ZM59.4772 41.8201C59.0815 41.8201 58.7578 41.7004 58.506 41.461C58.2542 41.2095 58.1283 40.8923 58.1283 40.5092C58.1283 40.1261 58.2542 39.8029 58.506 39.5395C58.7578 39.2761 59.0815 39.1444 59.4772 39.1444H69.0091C69.3928 39.1444 69.7165 39.2761 69.9803 39.5395C70.244 39.8029 70.3759 40.1261 70.3759 40.5092C70.3759 40.8923 70.244 41.2095 69.9803 41.461C69.7165 41.7004 69.3928 41.8201 69.0091 41.8201H59.4772ZM52.5171 45.4655H50.3769L44.1722 50.9964C43.6326 51.4753 43.177 51.8285 42.8053 52.0559C42.4336 52.2954 42.026 52.4151 41.5824 52.4151C40.9589 52.4151 40.4733 52.2116 40.1256 51.8045C39.7899 51.3975 39.622 50.8468 39.622 50.1524V45.4655H38.7587C36.9723 45.4655 35.4675 45.1482 34.2446 44.5137C33.0216 43.8792 32.0924 42.9514 31.4569 41.7303C30.8335 40.4972 30.5217 39.0067 30.5217 37.2589V23.4854C30.5217 21.7375 30.8335 20.253 31.4569 19.0319C32.0924 17.7988 33.0216 16.865 34.2446 16.2305C35.4675 15.5841 36.9723 15.2608 38.7587 15.2608H61.9231C63.7096 15.2608 65.2143 15.5841 66.4373 16.2305C67.6602 16.865 68.5834 17.7988 69.2069 19.0319C69.8424 20.253 70.1601 21.7375 70.1601 23.4854V26.4305H67.2646V23.5034C67.2646 21.7555 66.8269 20.4266 65.9517 19.5168C65.0764 18.6069 63.7336 18.152 61.9231 18.152H38.7587C36.9363 18.152 35.5874 18.6069 34.7122 19.5168C33.8489 20.4266 33.4173 21.7555 33.4173 23.5034V37.2409C33.4173 38.9888 33.8489 40.3177 34.7122 41.2275C35.5874 42.1254 36.9363 42.5743 38.7587 42.5743H40.9709C41.4625 42.5743 41.8102 42.6821 42.014 42.8976C42.2178 43.1011 42.3197 43.4483 42.3197 43.9391V49.1288L48.0748 43.4363C48.4106 43.0771 48.7343 42.8437 49.046 42.7359C49.3578 42.6282 49.7654 42.5743 50.269 42.5743H51.6358L52.5171 45.4655ZM57.5708 49.7933C55.8443 49.7933 54.3935 49.488 53.2185 48.8774C52.0555 48.2789 51.1742 47.3989 50.5747 46.2377C49.9752 45.0644 49.6755 43.6278 49.6755 41.9278V32.2128C49.6755 30.5128 49.9752 29.0762 50.5747 27.903C51.1742 26.7297 52.0555 25.8438 53.2185 25.2453C54.3935 24.6347 55.8443 24.3294 57.5708 24.3294H74.2786C76.0051 24.3294 77.4499 24.6347 78.6129 25.2453C79.7879 25.8438 80.6752 26.7297 81.2747 27.903C81.8742 29.0762 82.1739 30.5128 82.1739 32.2128V41.9278C82.1739 43.6278 81.8742 45.0644 81.2747 46.2377C80.6752 47.3989 79.7879 48.2789 78.6129 48.8774C77.4499 49.488 76.0051 49.7933 74.2786 49.7933H73.9009V54.1031C73.9009 54.7855 73.7331 55.3302 73.3974 55.7372C73.0616 56.1443 72.5821 56.3478 71.9586 56.3478C71.5269 56.3478 71.1253 56.2281 70.7536 55.9886C70.3939 55.7492 69.9443 55.396 69.4047 54.9291L63.3978 49.7933H57.5708ZM57.6247 46.9021H63.2899C63.6616 46.9021 63.9853 46.962 64.2611 47.0817C64.5369 47.1894 64.8246 47.381 65.1244 47.6563L71.2032 53.0795V48.3746C71.2032 47.8718 71.3351 47.5007 71.5989 47.2613C71.8747 47.0218 72.2044 46.9021 72.588 46.9021H74.2426C75.9932 46.9021 77.2701 46.4891 78.0734 45.663C78.8767 44.825 79.2784 43.562 79.2784 41.874V32.2487C79.2784 30.5727 78.8767 29.3156 78.0734 28.4776C77.2701 27.6396 75.9932 27.2206 74.2426 27.2206H57.6247C55.8622 27.2206 54.5793 27.6396 53.776 28.4776C52.9847 29.3156 52.589 30.5727 52.589 32.2487V41.8919C52.589 43.568 52.9847 44.825 53.776 45.663C54.5793 46.4891 55.8622 46.9021 57.6247 46.9021Z" fill="white"/>
</svg>
