<svg width="25" height="25" viewBox="0 0 25 25" fill="none" xmlns="http://www.w3.org/2000/svg">
<path d="M24.1279 0H24.0651C21.5337 0 19.5302 0 17.6791 0.325582C15.9244 0.63256 14.3244 1.22558 12.5 2.33489C10.6756 1.22558 9.07558 0.63256 7.32093 0.324419C5.46977 7.79714e-08 3.46628 0 0.934884 0H0.872093C0.6408 0 0.418979 0.0918813 0.25543 0.255431C0.091881 0.41898 0 0.640801 0 0.872095V13.2989C0 13.9093 2.27416e-08 14.4186 0.0325582 14.8338C0.0674419 15.2663 0.139535 15.6721 0.32907 16.057C0.624418 16.657 1.0686 17.1221 1.65581 17.4454C2.03605 17.6547 2.45349 17.7454 2.89767 17.7989C3.33023 17.8512 3.86744 17.8756 4.51977 17.9047L4.55465 17.907C7.37791 18.0349 9.3593 18.4942 12.0279 20.2094C12.1687 20.3 12.3326 20.3482 12.5 20.3482C12.6674 20.3482 12.8313 20.3 12.9721 20.2094C15.6407 18.4942 17.6221 18.0349 20.4465 17.907L20.4802 17.9047C21.1314 17.8756 21.6698 17.8512 22.1023 17.7989C22.5465 17.7454 22.9628 17.6547 23.3442 17.4454C23.9209 17.133 24.385 16.6473 24.6709 16.057C24.8605 15.6721 24.9337 15.2663 24.9674 14.8338C25 14.4186 25 13.9093 25 13.2989V0.872095C25 0.640801 24.9081 0.41898 24.7446 0.255431C24.581 0.0918813 24.3592 0 24.1279 0ZM7.01977 2.04303C8.54884 2.31047 9.95581 2.82443 11.6279 3.84536V17.9477C9.26512 16.6768 7.22674 16.2826 4.63256 16.164C4.1231 16.1487 3.61429 16.1166 3.10698 16.0675C2.75116 16.0245 2.5907 15.9686 2.49651 15.9163C2.22326 15.7663 2.0314 15.5663 1.89419 15.2861C1.84419 15.1838 1.79767 15.0279 1.77093 14.6977C1.74535 14.3582 1.74419 13.9186 1.74419 13.264V1.74419C3.90349 1.74884 5.52791 1.7814 7.01977 2.04303ZM20.3674 16.1628C17.7744 16.2814 15.7349 16.6745 13.3721 17.9466V3.84652C15.0442 2.82443 16.4512 2.31163 17.9802 2.04303C19.4721 1.7814 21.0965 1.74884 23.2558 1.74419V13.264C23.2558 13.9186 23.2558 14.3582 23.2291 14.6977C23.2023 15.0279 23.1558 15.1838 23.1058 15.2861C22.978 15.5558 22.7669 15.7772 22.5035 15.9175C22.4093 15.9686 22.2488 16.0245 21.893 16.0675C21.5326 16.1105 21.0616 16.1326 20.3674 16.164V16.1628ZM2.03488 20.3489C1.80359 20.3489 1.58177 20.4408 1.41822 20.6043C1.25467 20.7679 1.16279 20.9897 1.16279 21.221C1.16279 21.4523 1.25467 21.6741 1.41822 21.8376C1.58177 22.0012 1.80359 22.0931 2.03488 22.0931C4.33023 22.0931 5.98488 22.2373 7.47442 22.6442C8.95465 23.0477 10.3209 23.7233 12.0163 24.8535C12.1595 24.949 12.3278 25 12.5 25C12.6722 25 12.8405 24.949 12.9837 24.8535C14.6791 23.7233 16.0453 23.0477 17.5256 22.6442C19.0151 22.2373 20.6698 22.0931 22.9651 22.0931C23.1964 22.0931 23.4182 22.0012 23.5818 21.8376C23.7453 21.6741 23.8372 21.4523 23.8372 21.221C23.8372 20.9897 23.7453 20.7679 23.5818 20.6043C23.4182 20.4408 23.1964 20.3489 22.9651 20.3489C20.6093 20.3489 18.7756 20.4954 17.0674 20.9605C15.5058 21.3873 14.0907 22.0675 12.5 23.0861C10.9081 22.0675 9.49419 21.3873 7.93256 20.9605C6.22442 20.4954 4.3907 20.3489 2.03488 20.3489Z" fill="black"/>
</svg>
