<svg width="22" height="28" viewBox="0 0 22 28" fill="none" xmlns="http://www.w3.org/2000/svg">
<path d="M10.9573 0H11.0427C12.7663 0 14.119 2.1832e-08 15.2051 0.0911629C16.3114 0.186233 17.2254 0.378977 18.0526 0.816559C19.4128 1.53451 20.5187 2.68017 21.2118 4.08931C21.6342 4.94624 21.8215 5.89303 21.9107 7.03908C22 8.16429 22 9.56559 22 11.3511V27.0233C21.9998 27.1896 21.9586 27.3531 21.8803 27.4983C21.8019 27.6435 21.6891 27.7656 21.5525 27.853C21.4159 27.9404 21.26 27.9902 21.0996 27.9977C20.9392 28.0052 20.7797 27.9701 20.636 27.8958L17.7747 26.4151C15.087 25.0229 13.904 24.4199 12.6808 24.1829C11.57 23.967 10.43 23.967 9.3192 24.1829C8.096 24.4199 6.91303 25.0229 4.22526 26.4151L1.364 27.8972C1.22025 27.9715 1.06055 28.0065 0.900053 27.999C0.739554 27.9914 0.583581 27.9415 0.446936 27.854C0.310291 27.7664 0.197507 27.6442 0.119286 27.4988C0.0410663 27.3534 5.42968e-06 27.1897 0 27.0233V11.3511C0 9.56559 -6.32235e-08 8.16429 0.0879999 7.03908C0.179771 5.89303 0.365829 4.94624 0.788229 4.08931C1.48127 2.68017 2.58718 1.53451 3.94743 0.816559C4.77463 0.378977 5.68857 0.186233 6.79486 0.0924653C7.88103 5.82186e-08 9.23372 3.05233e-08 10.9573 0ZM6.94823 2.03944C5.95886 2.12279 5.32023 2.28428 4.80354 2.55647C3.79777 3.0872 2.98009 3.93427 2.46777 4.97619C2.20377 5.51145 2.04914 6.17303 1.96869 7.19796C1.88697 8.23462 1.88571 9.55517 1.88571 11.3954V25.4436L3.38171 24.6674L3.53006 24.5918C6.028 23.2973 7.45737 22.5563 8.97223 22.262C10.3123 22.0015 11.6877 22.0015 13.0278 22.262C14.5426 22.5563 15.972 23.2973 18.4712 24.5918L18.6183 24.6674L20.1143 25.4436V11.3954C20.1143 9.55517 20.1143 8.23462 20.0313 7.19796C19.9509 6.17303 19.795 5.51145 19.5322 4.97619C19.0202 3.93447 18.203 3.08742 17.1977 2.55647C16.6798 2.28298 16.0411 2.12279 15.0518 2.03944C14.0511 1.95479 12.7763 1.95349 11 1.95349C9.22491 1.95349 7.94891 1.95349 6.94823 2.03944Z" fill="black"/>
</svg>
