<svg width="22" height="22" viewBox="0 0 22 22" fill="none" xmlns="http://www.w3.org/2000/svg">
<path d="M1.60829 10.4539C1.60829 8.10788 2.54023 5.85797 4.1991 4.1991C5.85797 2.54023 8.10788 1.60829 10.4539 1.60829C12.7999 1.60829 15.0498 2.54023 16.7086 4.1991C18.3675 5.85797 19.2995 8.10788 19.2995 10.4539C19.2995 12.7999 18.3675 15.0498 16.7086 16.7086C15.0498 18.3675 12.7999 19.2995 10.4539 19.2995C8.10788 19.2995 5.85797 18.3675 4.1991 16.7086C2.54023 15.0498 1.60829 12.7999 1.60829 10.4539ZM10.4539 0C4.68012 0 0 4.68012 0 10.4539C0 16.2276 4.68012 20.9077 10.4539 20.9077C12.9494 20.9114 15.3632 20.0188 17.2559 18.3924L20.6075 21.7441C20.6812 21.8231 20.7699 21.8864 20.8686 21.9304C20.9672 21.9743 21.0737 21.998 21.1817 21.9999C21.2896 22.0018 21.3969 21.9819 21.497 21.9415C21.5972 21.901 21.6881 21.8408 21.7645 21.7645C21.8408 21.6881 21.901 21.5972 21.9415 21.497C21.9819 21.3969 22.0018 21.2896 21.9999 21.1817C21.998 21.0737 21.9743 20.9672 21.9304 20.8686C21.8864 20.7699 21.8231 20.6812 21.7441 20.6075L18.3924 17.2559C20.0188 15.3632 20.9114 12.9494 20.9077 10.4539C20.9077 4.68012 16.2276 0 10.4539 0Z" fill="black"/>
</svg>
