<svg width="22" height="24" viewBox="0 0 22 24" fill="none" xmlns="http://www.w3.org/2000/svg">
<path d="M9.32381 0.442953C9.83548 0.152559 10.4128 0 11 0C11.5872 0 12.1645 0.152559 12.6762 0.442953L20.26 4.74672C20.788 5.04634 21.2273 5.48208 21.5331 6.00926C21.8389 6.53644 22 7.13609 22 7.74673V16.2533C22 16.8639 21.8389 17.4636 21.5331 17.9907C21.2273 18.5179 20.788 18.9537 20.26 19.2533L12.6762 23.557C12.1645 23.8474 11.5872 24 11 24C10.4128 24 9.83548 23.8474 9.32381 23.557L1.73996 19.2533C1.21203 18.9537 0.772664 18.5179 0.466908 17.9907C0.161152 17.4636 8.50265e-06 16.8639 0 16.2533V7.74673C8.50265e-06 7.13609 0.161152 6.53644 0.466908 6.00926C0.772664 5.48208 1.21203 5.04634 1.73996 4.74672L9.32381 0.442953ZM11.5591 2.44449C11.3885 2.34755 11.1959 2.29662 11 2.29662C10.8041 2.29662 10.6115 2.34755 10.4409 2.44449L2.85818 6.74711C2.68212 6.84685 2.53555 6.992 2.43349 7.16766C2.33144 7.34332 2.27758 7.54317 2.27743 7.74673V16.2533C2.27758 16.4568 2.33144 16.6567 2.43349 16.8323C2.53555 17.008 2.68212 17.1531 2.85818 17.2529L10.442 21.5567C10.6127 21.6536 10.8053 21.7045 11.0011 21.7045C11.197 21.7045 11.3896 21.6536 11.5602 21.5567L19.1441 17.2529C19.3202 17.1531 19.4667 17.008 19.5688 16.8323C19.6708 16.6567 19.7247 16.4568 19.7248 16.2533V7.74673C19.7247 7.54317 19.6708 7.34332 19.5688 7.16766C19.4667 6.992 19.3202 6.84685 19.1441 6.74711L11.5591 2.44449ZM11 7.40932C12.208 7.40932 13.3666 7.89298 14.2208 8.7539C15.075 9.61482 15.5549 10.7825 15.5549 12C15.5549 13.2175 15.075 14.3852 14.2208 15.2461C13.3666 16.107 12.208 16.5907 11 16.5907C9.79198 16.5907 8.63343 16.107 7.77922 15.2461C6.92502 14.3852 6.44514 13.2175 6.44514 12C6.44514 10.7825 6.92502 9.61482 7.77922 8.7539C8.63343 7.89298 9.79198 7.40932 11 7.40932ZM11 9.70466C10.7009 9.70466 10.4048 9.76403 10.1285 9.87938C9.85215 9.99473 9.60109 10.1638 9.38961 10.3769C9.17813 10.5901 9.01038 10.8431 8.89593 11.1216C8.78148 11.4001 8.72257 11.6986 8.72257 12C8.72257 12.3014 8.78148 12.5999 8.89593 12.8784C9.01038 13.1569 9.17813 13.4099 9.38961 13.6231C9.60109 13.8362 9.85215 14.0053 10.1285 14.1206C10.4048 14.236 10.7009 14.2953 11 14.2953C11.604 14.2953 12.1833 14.0535 12.6104 13.6231C13.0375 13.1926 13.2774 12.6088 13.2774 12C13.2774 11.3912 13.0375 10.8074 12.6104 10.3769C12.1833 9.94649 11.604 9.70466 11 9.70466Z" fill="black"/>
</svg>
