<svg width="28" height="28" viewBox="0 0 28 28" fill="none" xmlns="http://www.w3.org/2000/svg">
<path d="M14.6902 0.285661C14.5071 0.102743 14.2588 0 14 0C13.7412 0 13.4929 0.102743 13.3098 0.285661L8.10046 5.49512C7.92793 5.68029 7.834 5.92519 7.83847 6.17824C7.84293 6.43129 7.94544 6.67273 8.1244 6.8517C8.30336 7.03066 8.54479 7.13317 8.79783 7.13763C9.05087 7.1421 9.29577 7.04817 9.48093 6.87563L13.0233 3.3332V17.9067C13.0233 18.1657 13.1262 18.4142 13.3093 18.5974C13.4925 18.7805 13.741 18.8834 14 18.8834C14.259 18.8834 14.5075 18.7805 14.6907 18.5974C14.8738 18.4142 14.9767 18.1657 14.9767 17.9067V3.3332L18.5191 6.87563C18.7042 7.04817 18.9491 7.1421 19.2022 7.13763C19.4552 7.13317 19.6966 7.03066 19.8756 6.8517C20.0546 6.67273 20.1571 6.43129 20.1615 6.17824C20.166 5.92519 20.0721 5.68029 19.8995 5.49512L14.6902 0.285661ZM8.13953 10.4181H7.9533C6.31498 10.4181 5.27051 10.4181 4.39014 10.6851C3.41688 10.9804 2.53146 11.5112 1.81227 12.2304C1.09309 12.9496 0.562322 13.835 0.266977 14.8083C8.9407e-08 15.6887 0 16.7332 0 18.3716V19.2442C0 20.4293 5.58794e-08 21.3671 0.0520931 22.1263C0.104186 22.9025 0.214884 23.5641 0.471442 24.1815C1.09927 25.6968 2.30317 26.9007 3.81842 27.5285C4.43572 27.7851 5.0973 27.8945 5.87349 27.9479C6.63405 28 7.57172 28 8.75553 28H19.2445C20.4296 28 21.3673 28 22.1265 27.9479C22.9027 27.8958 23.5643 27.7851 24.1816 27.5285C25.6968 26.9007 26.9007 25.6968 27.5286 24.1815C27.7851 23.5641 27.8958 22.9025 27.9479 22.1263C28 21.3657 28 20.428 28 19.2442V18.3716C28 16.7332 28 15.6887 27.7343 14.8083C27.4389 13.8349 26.9079 12.9494 26.1885 12.2301C25.469 11.5109 24.5834 10.9802 23.6099 10.6851C22.7295 10.4181 21.685 10.4181 20.0467 10.4181H19.2093C18.9503 10.4181 18.7018 10.521 18.5186 10.7042C18.3355 10.8873 18.2326 11.1358 18.2326 11.3948C18.2326 11.6539 18.3355 11.9023 18.5186 12.0855C18.7018 12.2687 18.9503 12.3716 19.2093 12.3716H19.8605C21.7488 12.3716 22.4768 12.382 23.0433 12.5539C23.7093 12.7562 24.3152 13.1195 24.8072 13.6118C25.2992 14.1041 25.6623 14.7101 25.8642 15.3762C26.0361 15.9414 26.0465 16.6694 26.0465 18.5578V19.209C26.0465 20.4359 26.0465 21.3071 25.9996 21.9935C25.9527 22.6707 25.8655 23.094 25.7248 23.4339C25.512 23.9476 25.2 24.4143 24.8067 24.8074C24.4134 25.2005 23.9465 25.5122 23.4327 25.7248C23.0941 25.8654 22.6696 25.9527 21.9937 25.9983C21.3073 26.0465 20.4361 26.0465 19.2093 26.0465H8.7907C7.56391 26.0465 6.69265 26.0464 6.00633 25.9996C5.32912 25.9527 4.90586 25.8654 4.56595 25.7248C4.05228 25.5119 3.58557 25.1999 3.19251 24.8066C2.79945 24.4133 2.48773 23.9464 2.27516 23.4326C2.13451 23.094 2.04726 22.6694 2.00167 21.9935C1.95349 21.3058 1.95349 20.4359 1.95349 19.209V18.5578C1.95349 16.6694 1.96391 15.9414 2.13581 15.3762C2.33784 14.7099 2.70109 14.1038 3.19336 13.6115C3.68563 13.1192 4.29173 12.756 4.95795 12.5539C5.52316 12.382 6.25116 12.3716 8.13953 12.3716H8.7907C9.04975 12.3716 9.29818 12.2687 9.48136 12.0855C9.66453 11.9023 9.76744 11.6539 9.76744 11.3948C9.76744 11.1358 9.66453 10.8873 9.48136 10.7042C9.29818 10.521 9.04975 10.4181 8.7907 10.4181H8.13953Z" fill="black"/>
</svg>
