<svg width="36" height="34" viewBox="0 0 36 34" fill="none" xmlns="http://www.w3.org/2000/svg">
<path d="M18 0C27.9411 0 36 7.61116 36 17C36 26.3888 27.9411 34 18 34C8.05887 34 0 26.3888 0 17C0 7.61116 8.05887 0 18 0ZM18 1C8.55654 1 1 8.21653 1 17C1 25.7835 8.55654 33 18 33C27.4435 33 35 25.7835 35 17C35 8.21653 27.4435 1 18 1ZM17.8838 8C19.3427 8 20.4796 7.99999 21.3906 8.07422C22.3155 8.15022 23.0672 8.30584 23.7422 8.64941C24.8646 9.22142 25.7776 10.1344 26.3496 11.2568C26.6941 11.9327 26.8498 12.6845 26.9258 13.6094C27 14.5195 27 15.6564 27 17.1152V20.3232C27 20.6016 27 20.768 26.9912 20.9297C26.9174 22.2869 26.3822 23.5781 25.4746 24.5898C25.3668 24.71 25.2489 24.8273 25.0527 25.0234L25.0244 25.0527C24.8273 25.2489 24.71 25.3668 24.5898 25.4746C23.5781 26.3822 22.2869 26.9174 20.9297 26.9912C20.768 27 20.6025 27 20.3232 27H17.1162C15.6582 27 14.5204 27 13.6094 26.9258C12.6845 26.8498 11.9328 26.6942 11.2578 26.3506C10.1354 25.7786 9.2224 24.8656 8.65039 23.7432C8.3059 23.0673 8.15022 22.3155 8.07422 21.3906C7.99999 20.4804 8 19.3427 8 17.8838V17.1162C8 15.6573 7.99999 14.5204 8.07422 13.6094C8.15022 12.6845 8.30584 11.9328 8.64941 11.2578C9.22142 10.1354 10.1344 9.2224 11.2568 8.65039C11.9327 8.3059 12.6845 8.15022 13.6094 8.07422C14.5196 7.99999 15.6573 8 17.1162 8H17.8838ZM17.1465 9.3252C15.6513 9.3252 14.5688 9.32579 13.7178 9.39648C12.8756 9.46453 12.317 9.59777 11.8584 9.83105C10.9856 10.2758 10.2758 10.9856 9.83105 11.8584C9.59777 12.317 9.46443 12.8748 9.39551 13.7188C9.32571 14.5689 9.3252 15.6513 9.3252 17.1465V17.8535C9.3252 19.3487 9.32579 20.4303 9.39648 21.2822C9.46453 22.1244 9.59777 22.683 9.83105 23.1416C10.2758 24.0144 10.9856 24.7242 11.8584 25.1689C12.317 25.4022 12.8748 25.5356 13.7188 25.6045C14.5689 25.6743 15.6513 25.6748 17.1465 25.6748H20.3721V23.8359C20.3721 23.3642 20.3719 22.9699 20.3984 22.6475C20.425 22.3117 20.4857 21.997 20.6377 21.6992C20.8708 21.2422 21.2422 20.8708 21.6992 20.6377C21.997 20.4857 22.3117 20.425 22.6475 20.3984C22.9691 20.3719 23.3633 20.3721 23.8359 20.3721H25.6748V17.1465C25.6748 15.6513 25.6742 14.5688 25.6035 13.7178C25.5355 12.8756 25.4022 12.317 25.1689 11.8584C24.7242 10.9856 24.0144 10.2758 23.1416 9.83105C22.6838 9.59777 22.1252 9.46443 21.2812 9.39551C20.4303 9.32571 19.3487 9.3252 17.8535 9.3252H17.1465ZM23.8623 21.6973C23.3573 21.6973 23.0173 21.6976 22.7559 21.7188C22.5031 21.74 22.3803 21.7767 22.3008 21.8174C22.0924 21.9234 21.9234 22.0924 21.8174 22.3008C21.7767 22.3803 21.74 22.5022 21.7188 22.7559C21.6976 23.0173 21.6973 23.3564 21.6973 23.8623V25.5439C22.4429 25.3635 23.133 25.0005 23.7041 24.4883C23.795 24.407 23.8862 24.317 24.1016 24.1016C24.317 23.8862 24.407 23.795 24.4883 23.7041C25.0005 23.133 25.3635 22.4429 25.5439 21.6973H23.8623ZM14.8486 19.4883C15.0244 19.4883 15.1931 19.5583 15.3174 19.6826C15.4417 19.8069 15.5117 19.9756 15.5117 20.1514C15.5117 20.3271 15.4416 20.4959 15.3174 20.6201C15.1931 20.7443 15.0243 20.8135 14.8486 20.8135H13.0811C12.9054 20.8134 12.7365 20.7443 12.6123 20.6201C12.4881 20.4959 12.419 20.327 12.4189 20.1514C12.4189 19.9757 12.4882 19.8069 12.6123 19.6826C12.7365 19.5584 12.9054 19.4884 13.0811 19.4883H14.8486ZM18.3838 15.9531C18.5595 15.9531 18.7283 16.0232 18.8525 16.1475C18.9768 16.2717 19.0469 16.4405 19.0469 16.6162C19.0469 16.792 18.9768 16.9607 18.8525 17.085C18.7283 17.2092 18.5595 17.2793 18.3838 17.2793H13.0811C12.9054 17.2792 12.7365 17.2092 12.6123 17.085C12.4881 16.9607 12.4189 16.7919 12.4189 16.6162C12.419 16.4405 12.4881 16.2717 12.6123 16.1475C12.7365 16.0232 12.9054 15.9532 13.0811 15.9531H18.3838ZM20.1514 12.4189C20.327 12.419 20.4959 12.4881 20.6201 12.6123C20.7443 12.7365 20.8134 12.9054 20.8135 13.0811C20.8135 13.2567 20.7442 13.4255 20.6201 13.5498C20.4959 13.6741 20.3271 13.7441 20.1514 13.7441H13.0811C12.9054 13.7441 12.7365 13.674 12.6123 13.5498C12.4882 13.4255 12.4189 13.2567 12.4189 13.0811C12.419 12.9054 12.4881 12.7365 12.6123 12.6123C12.7365 12.4881 12.9054 12.419 13.0811 12.4189H20.1514Z" fill="black"/>
</svg>
